# xmcd CD database file
#
# Track frame offsets:
#	150
#	17312
#	35027
#	50967
#	64628
#	86151
#	100106
#	114582
#	131851
#	149681
#	158298
#
# Disc length: 2354 seconds
#
# Revision: 1
# Processed by: cddbd v1.5.2PL0 Copyright (c) Steve Scherf et al.
# Submitted via: CDex 1.51
#
DISCID=9609300b
DTITLE=John Denver - Seasons Of The Heart
DYEAR=1982
DGENRE=Oldies
TTITLE0=Seasons Of The Heart
TTITLE1=Opposite Tables
TTITLE2=Relatively Speaking
TTITLE3=Dreams
TTITLE4=Nothing But A Breeze
TTITLE5=What One Man Can Do
TTITLE6=Shanghai Breezes
TTITLE7=Islands
TTITLE8=Heart To Heart
TTITLE9=Perhaps Love
TTITLE10=Children Of The Universe
EXTD=YEAR: 1982
EXTT0=
EXTT1=
EXTT2=
EXTT3=
EXTT4=
EXTT5=
EXTT6=
EXTT7=
EXTT8=
EXTT9=
EXTT10=
PLAYORDER=
